REM DIRINDEX 1\2,1\3,1\4,1\6,1\5\7,1\5\8
REM DIRNAME cjc114,folder01,folder02,folder03,folder04,folder05,folder06,folder07
TITLE ""
FILE "DB4500_5th_6C_36.mp3" MP3
  TRACK 01 AUDIO
    TITLE "0:"
    INDEX 01 00:00:00
  TRACK 02 AUDIO
    TITLE "2:cjc114_4532"
    INDEX 01 00:00:01
  TRACK 03 AUDIO
    TITLE "0:"
    INDEX 01 00:01:13
  TRACK 04 AUDIO
    TITLE "3:cjc114_4533"
    INDEX 01 00:01:26
  TRACK 05 AUDIO
    TITLE "0:"
    INDEX 01 00:02:63
  TRACK 06 AUDIO
    TITLE "4:cjc114_4534"
    INDEX 01 00:03:04
  TRACK 07 AUDIO
    TITLE "0:"
    INDEX 01 00:07:31
  TRACK 08 AUDIO
    TITLE "2:cjc114_4535"
    INDEX 01 00:07:70
  TRACK 09 AUDIO
    TITLE "0:"
    INDEX 01 00:09:04
  TRACK 10 AUDIO
    TITLE "3:cjc114_4536"
    INDEX 01 00:09:18
  TRACK 11 AUDIO
    TITLE "0:"
    INDEX 01 00:11:09
  TRACK 12 AUDIO
    TITLE "4:cjc114_4537"
    INDEX 01 00:11:29
  TRACK 13 AUDIO
    TITLE "0:"
    INDEX 01 00:14:02
  TRACK 14 AUDIO
    TITLE "2:cjc114_4538"
    INDEX 01 00:14:29
  TRACK 15 AUDIO
    TITLE "0:"
    INDEX 01 00:15:27
  TRACK 16 AUDIO
    TITLE "3:cjc114_4539"
    INDEX 01 00:15:40
  TRACK 17 AUDIO
    TITLE "0:"
    INDEX 01 00:16:61
  TRACK 18 AUDIO
    TITLE "4:cjc114_4540"
    INDEX 01 00:17:00
  TRACK 19 AUDIO
    TITLE "0:"
    INDEX 01 00:19:22
  TRACK 20 AUDIO
    TITLE "2:cjc114_4541"
    INDEX 01 00:19:58
  TRACK 21 AUDIO
    TITLE "0:"
    INDEX 01 00:20:71
  TRACK 22 AUDIO
    TITLE "3:cjc114_4542"
    INDEX 01 00:21:11
  TRACK 23 AUDIO
    TITLE "0:"
    INDEX 01 00:22:34
  TRACK 24 AUDIO
    TITLE "4:cjc114_4543"
    INDEX 01 00:22:48
  TRACK 25 AUDIO
    TITLE "0:"
    INDEX 01 00:25:66
  TRACK 26 AUDIO
    TITLE "2:cjc114_4544"
    INDEX 01 00:26:30
  TRACK 27 AUDIO
    TITLE "0:"
    INDEX 01 00:27:38
  TRACK 28 AUDIO
    TITLE "3:cjc114_4545"
    INDEX 01 00:27:49
  TRACK 29 AUDIO
    TITLE "0:"
    INDEX 01 00:29:01
  TRACK 30 AUDIO
    TITLE "4:cjc114_4546"
    INDEX 01 00:29:29
  TRACK 31 AUDIO
    TITLE "0:"
    INDEX 01 00:31:59
  TRACK 32 AUDIO
    TITLE "2:cjc114_4547"
    INDEX 01 00:32:23
  TRACK 33 AUDIO
    TITLE "0:"
    INDEX 01 00:33:15
  TRACK 34 AUDIO
    TITLE "3:cjc114_4548"
    INDEX 01 00:33:30
  TRACK 35 AUDIO
    TITLE "0:"
    INDEX 01 00:34:42
  TRACK 36 AUDIO
    TITLE "4:cjc114_4549"
    INDEX 01 00:34:55
  TRACK 37 AUDIO
    TITLE "0:"
    INDEX 01 00:37:36
  TRACK 38 AUDIO
    TITLE "2:cjc114_4550"
    INDEX 01 00:38:00
  TRACK 39 AUDIO
    TITLE "0:"
    INDEX 01 00:39:25
  TRACK 40 AUDIO
    TITLE "3:cjc114_4551"
    INDEX 01 00:39:39
  TRACK 41 AUDIO
    TITLE "0:"
    INDEX 01 00:41:02
  TRACK 42 AUDIO
    TITLE "4:cjc114_4552"
    INDEX 01 00:41:14
  TRACK 43 AUDIO
    TITLE "0:"
    INDEX 01 00:43:46
  TRACK 44 AUDIO
    TITLE "2:cjc114_4553"
    INDEX 01 00:44:09
  TRACK 45 AUDIO
    TITLE "0:"
    INDEX 01 00:45:26
  TRACK 46 AUDIO
    TITLE "3:cjc114_4554"
    INDEX 01 00:45:39
  TRACK 47 AUDIO
    TITLE "0:"
    INDEX 01 00:46:43
  TRACK 48 AUDIO
    TITLE "4:cjc114_4555"
    INDEX 01 00:46:54
  TRACK 49 AUDIO
    TITLE "0:"
    INDEX 01 00:50:60
  TRACK 50 AUDIO
    TITLE "2:cjc114_4556"
    INDEX 01 00:51:20
  TRACK 51 AUDIO
    TITLE "0:"
    INDEX 01 00:52:26
  TRACK 52 AUDIO
    TITLE "3:cjc114_4557"
    INDEX 01 00:52:39
  TRACK 53 AUDIO
    TITLE "0:"
    INDEX 01 00:53:53
  TRACK 54 AUDIO
    TITLE "4:cjc114_4558"
    INDEX 01 00:53:66
  TRACK 55 AUDIO
    TITLE "0:"
    INDEX 01 00:56:74
  TRACK 56 AUDIO
    TITLE "2:cjc114_4559"
    INDEX 01 00:57:35
  TRACK 57 AUDIO
    TITLE "0:"
    INDEX 01 00:58:50
  TRACK 58 AUDIO
    TITLE "3:cjc114_4560"
    INDEX 01 00:58:62
  TRACK 59 AUDIO
    TITLE "0:"
    INDEX 01 01:00:08
  TRACK 60 AUDIO
    TITLE "4:cjc114_4561"
    INDEX 01 01:00:21
  TRACK 61 AUDIO
    TITLE "0:"
    INDEX 01 01:04:21
  TRACK 62 AUDIO
    TITLE "2:cjc114_4562"
    INDEX 01 01:04:60
  TRACK 63 AUDIO
    TITLE "0:"
    INDEX 01 01:07:25
  TRACK 64 AUDIO
    TITLE "3:cjc114_4563"
    INDEX 01 01:07:37
  TRACK 65 AUDIO
    TITLE "0:"
    INDEX 01 01:08:56
  TRACK 66 AUDIO
    TITLE "4:cjc114_4564"
    INDEX 01 01:08:70
  TRACK 67 AUDIO
    TITLE "0:"
    INDEX 01 01:12:50
  TRACK 68 AUDIO
    TITLE "2:cjc114_4565"
    INDEX 01 01:13:12
  TRACK 69 AUDIO
    TITLE "0:"
    INDEX 01 01:14:12
  TRACK 70 AUDIO
    TITLE "3:cjc114_4566"
    INDEX 01 01:14:23
  TRACK 71 AUDIO
    TITLE "0:"
    INDEX 01 01:15:35
  TRACK 72 AUDIO
    TITLE "4:cjc114_4567"
    INDEX 01 01:15:46
  TRACK 73 AUDIO
    TITLE "0:"
    INDEX 01 01:18:07
  TRACK 74 AUDIO
    TITLE "2:cjc114_4568"
    INDEX 01 01:18:43
  TRACK 75 AUDIO
    TITLE "0:"
    INDEX 01 01:19:50
  TRACK 76 AUDIO
    TITLE "3:cjc114_4569"
    INDEX 01 01:19:66
  TRACK 77 AUDIO
    TITLE "0:"
    INDEX 01 01:21:27
  TRACK 78 AUDIO
    TITLE "4:cjc114_4570"
    INDEX 01 01:21:41
  TRACK 79 AUDIO
    TITLE "0:"
    INDEX 01 01:25:60
